<svg xmlns="http://www.w3.org/2000/svg" viewBox="0 0 640 640"><title>Markup Link Harvester favicon</title><path fill="#fa9595" d="M251.5 470.1l-26 25.8a58 58 0 0 1-81.4 0 56.1 56.1 0 0 1 0-80.2l95.4-94.5c19.7-19.6 57-48.5 84-21.6a31.7 31.7 0 1 0 44.7-45c-46-45.7-114-37.3-173.4 21.6l-95.3 94.6a119 119 0 0 0-35.5 85 119 119 0 0 0 35.5 85c23.5 23.4 54.4 35.1 85.4 35.1s61.9-11.6 85.4-35l26-25.8a31.6 31.6 0 0 0 0-44.8 31.8 31.8 0 0 0-44.8-.2zm289-367.5C491 53.6 421.8 51 376.1 96.3l-32.3 32a31.7 31.7 0 1 0 44.6 45l32.4-32c23.6-23.5 54.7-13.7 75 6.3a56.2 56.2 0 0 1 0 80.1l-101.7 101c-46.5 46-68.4 24.5-77.7 15.2a31.7 31.7 0 1 0-44.7 45c21.4 21.2 45.8 31.7 71.3 31.7 31.3 0 64.4-15.7 95.8-47l101.8-100.8a119.4 119.4 0 0 0 0-170.2z"/></svg>